<svg xmlns="http://www.w3.org/2000/svg" viewBox="0 0 68 85" x="0px" y="0px"><path fill="#f7f7f7" d="M56,422.003487 C56,418.688644 58.6900147,416 62.0034866,416 L117.996513,416 C121.311356,416 124,418.690015 124,422.003487 L124,477.996513 C124,481.311356 121.309985,484 117.996513,484 L62.0034866,484 C58.6886442,484 56,481.309985 56,477.996513 L56,422.003487 Z M62.3177951,450 C63.9344907,451.074922 65,452.913029 65,455 C65,457.086971 63.9344907,458.925078 62.3177951,460 C63.9344907,461.074922 65,462.913029 65,465 C65,467.086971 63.9344907,468.925078 62.3177951,470 C63.9344907,471.074922 65,472.913029 65,475 C65,477.086971 63.9344907,478.925078 62.3177951,480 L117.996513,480 C119.101303,480 120,479.10176 120,477.996513 L120,422.003487 C120,420.898697 119.10176,420 117.996513,420 L62.3177951,420 C63.9344907,421.074922 65,422.913029 65,425 C65,427.086971 63.9344907,428.925078 62.3177951,430 C63.9344907,431.074922 65,432.913029 65,435 C65,437.086971 63.9344907,438.925078 62.3177951,440 C63.9344907,441.074922 65,442.913029 65,445 C65,447.086971 63.9344907,448.925078 62.3177951,450 Z M90,452 C88.8954305,452 88,451.104569 88,450 C88,448.895431 88.8954305,448 90,448 C91.1045695,448 92,448.895431 92,450 C92,451.104569 91.1045695,452 90,452 Z M82,448 C80.3431458,448 79,446.656854 79,445 C79,443.343146 80.3431458,442 82,442 C83.6568542,442 85,443.343146 85,445 C85,446.656854 83.6568542,448 82,448 Z M90,444 C88.8954305,444 88,443.104569 88,442 C88,440.895431 88.8954305,440 90,440 C91.1045695,440 92,440.895431 92,442 C92,443.104569 91.1045695,444 90,444 Z M90,436 C88.8954305,436 88,435.104569 88,434 C88,432.895431 88.8954305,432 90,432 C91.1045695,432 92,432.895431 92,434 C92,435.104569 91.1045695,436 90,436 Z M90,476 C88.8954305,476 88,475.104569 88,474 C88,472.895431 88.8954305,472 90,472 C91.1045695,472 92,472.895431 92,474 C92,475.104569 91.1045695,476 90,476 Z M90,468 C88.8954305,468 88,467.104569 88,466 C88,464.895431 88.8954305,464 90,464 C91.1045695,464 92,464.895431 92,466 C92,467.104569 91.1045695,468 90,468 Z M90,460 C88.8954305,460 88,459.104569 88,458 C88,456.895431 88.8954305,456 90,456 C91.1045695,456 92,456.895431 92,458 C92,459.104569 91.1045695,460 90,460 Z M90,428 C88.8954305,428 88,427.104569 88,426 C88,424.895431 88.8954305,424 90,424 C91.1045695,424 92,424.895431 92,426 C92,427.104569 91.1045695,428 90,428 Z M82,438 C80.3431458,438 79,436.656854 79,435 C79,433.343146 80.3431458,432 82,432 C83.6568542,432 85,433.343146 85,435 C85,436.656854 83.6568542,438 82,438 Z M82,428 C80.3431458,428 79,426.656854 79,425 C79,423.343146 80.3431458,422 82,422 C83.6568542,422 85,423.343146 85,425 C85,426.656854 83.6568542,428 82,428 Z M82,478 C80.3431458,478 79,476.656854 79,475 C79,473.343146 80.3431458,472 82,472 C83.6568542,472 85,473.343146 85,475 C85,476.656854 83.6568542,478 82,478 Z M82,468 C80.3431458,468 79,466.656854 79,465 C79,463.343146 80.3431458,462 82,462 C83.6568542,462 85,463.343146 85,465 C85,466.656854 83.6568542,468 82,468 Z M82,458 C80.3431458,458 79,456.656854 79,455 C79,453.343146 80.3431458,452 82,452 C83.6568542,452 85,453.343146 85,455 C85,456.656854 83.6568542,458 82,458 Z M72,449 C69.790861,449 68,447.209139 68,445 C68,442.790861 69.790861,441 72,441 C74.209139,441 76,442.790861 76,445 C76,447.209139 74.209139,449 72,449 Z M72,439 C69.790861,439 68,437.209139 68,435 C68,432.790861 69.790861,431 72,431 C74.209139,431 76,432.790861 76,435 C76,437.209139 74.209139,439 72,439 Z M72,429 C69.790861,429 68,427.209139 68,425 C68,422.790861 69.790861,421 72,421 C74.209139,421 76,422.790861 76,425 C76,427.209139 74.209139,429 72,429 Z M72,479 C69.790861,479 68,477.209139 68,475 C68,472.790861 69.790861,471 72,471 C74.209139,471 76,472.790861 76,475 C76,477.209139 74.209139,479 72,479 Z M72,469 C69.790861,469 68,467.209139 68,465 C68,462.790861 69.790861,461 72,461 C74.209139,461 76,462.790861 76,465 C76,467.209139 74.209139,469 72,469 Z M72,459 C69.790861,459 68,457.209139 68,455 C68,452.790861 69.790861,451 72,451 C74.209139,451 76,452.790861 76,455 C76,457.209139 74.209139,459 72,459 Z" transform="translate(-56 -416)"/><text x="0" y="83" fill="#000000" font-size="5px" font-weight="bold" font-family="'Helvetica Neue', Helvetica, Arial-Unicode, Arial, Sans-serif"></text><text x="0" y="88" fill="#000000" font-size="5px" font-weight="bold" font-family="'Helvetica Neue', Helvetica, Arial-Unicode, Arial, Sans-serif"></text></svg>