<svg xmlns="http://www.w3.org/2000/svg" version="1.1" viewBox="-5.0 -10.0 110.0 135.0">
 <path d="m58.512 54.352 2.3789 2.3711-0.30859 0.28125-3.582 3.5742c-0.089844 0.10156-0.19141 0.19922-0.28125 0.30859l-2.3711-2.3789 0.003906 0.003907c1.5117-1.2539 2.9062-2.6484 4.1602-4.1602zm-24.172-49.16c-7.7305-0.003906-15.148 3.0664-20.617 8.5312s-8.5391 12.879-8.543 20.609c0 7.7344 3.0703 15.148 8.5352 20.617s12.879 8.5391 20.613 8.5391c7.7305 0.003907 15.145-3.0664 20.613-8.5352 5.4688-5.4648 8.5391-12.883 8.5391-20.613 0-7.7305-3.0703-15.141-8.5352-20.609-5.4648-5.4648-12.875-8.5391-20.605-8.5391zm0 43.621v-0.003906c0.58203 0.054687 1.0234 0.54297 1.0234 1.125 0 0.58594-0.44141 1.0703-1.0234 1.125-4.4336 0.003906-8.6875-1.7578-11.824-4.8945-3.1367-3.1328-4.8984-7.3906-4.8945-11.824 0-0.61719 0.5-1.1211 1.1172-1.1211 0.62109 0 1.1211 0.50391 1.1211 1.1211 0.003906 3.8398 1.5312 7.5195 4.2461 10.234 2.7148 2.7109 6.3945 4.2344 10.234 4.2344zm0-38.422c-7.4648-0.003906-14.504 3.4648-19.051 9.3867-4.543 5.9219-6.0742 13.621-4.1406 20.832 1.9336 7.207 7.1133 13.109 14.012 15.961 6.8984 2.8516 14.73 2.332 21.191-1.4062 6.457-3.7383 10.812-10.273 11.777-17.676 0.96484-7.3984-1.5703-14.828-6.8594-20.098-4.4883-4.4883-10.582-7.0078-16.93-7zm15.352 8.6094c-4.7734-4.7695-11.492-7.0469-18.18-6.1641-6.6875 0.87891-12.586 4.8242-15.957 10.664-3.3711 5.8438-3.8359 12.922-1.2539 19.156 2.5859 6.2305 7.918 10.906 14.434 12.652s13.473 0.36328 18.824-3.7461c5.3516-4.1055 8.4922-10.465 8.4922-17.211 0.003907-5.7617-2.2852-11.285-6.3594-15.352zm8.8984 43.18c-1.2188 1.207-1.2969 3.1484-0.17969 4.4492l2.8281 3.3086 8.6914-8.6914-3.3086-2.8281v0.003906c-1.3008-1.1172-3.2461-1.0391-4.4492 0.17969l-3.5781 3.5781zm13 0.53906 22 18.84c0.70703 0.58984 1.125 1.4531 1.1484 2.3711 0.046875 0.92969-0.31641 1.8281-1 2.4609l-7.4609 7.4609h0.003906c-0.63281 0.67969-1.5352 1.0469-2.4609 1-0.91797-0.027343-1.7812-0.44531-2.3711-1.1523l-18.84-22zm10.469 19.34c-0.99219 1.0078-1.2812 2.5156-0.73828 3.8203 0.54688 1.3047 1.8242 2.1562 3.2383 2.1562 1.418 0 2.6914-0.85156 3.2383-2.1562 0.54688-1.3047 0.25781-2.8125-0.73828-3.8203-0.66016-0.66797-1.5586-1.043-2.5-1.043-0.9375 0-1.8398 0.375-2.5 1.043z" fill-rule="evenodd"/>
<text x="0.0" y="117.5" font-size="5.0" font-weight="bold" font-family="Arbeit Regular, Helvetica, Arial-Unicode, Arial, Sans-serif" fill="#ffffff"></text><text x="0.0" y="122.5" font-size="5.0" font-weight="bold" font-family="Arbeit Regular, Helvetica, Arial-Unicode, Arial, Sans-serif" fill="#ffffff"></text></svg>