<svg xmlns="http://www.w3.org/2000/svg" viewBox="0 0 64 80" x="0px" y="0px"><g data-name="Layer 16"><path d="M16.5,51.513A4.025,4.025,0,0,1,12.487,47.5a1,1,0,0,0-1-1h-.005a1,1,0,0,0-.995,1.006,6.023,6.023,0,0,0,6,6h.006a1,1,0,0,0,.005-2Z"/><path d="M16.457,59.512A12.022,12.022,0,0,1,4.488,47.543a1,1,0,0,0-1-.995H3.482a1,1,0,0,0-.994,1.006A14.023,14.023,0,0,0,16.446,61.512h.006a1,1,0,0,0,0-2Z"/><path d="M16.477,55.512a8.02,8.02,0,0,1-7.989-7.989,1,1,0,0,0-1-1H7.483a1,1,0,0,0-.995,1.005,10.021,10.021,0,0,0,9.979,9.979h.005a1,1,0,0,0,0-2Z"/><path d="M48.97,33.41a1.034,1.034,0,0,0-1.41,0l-2.83,2.83-1.42-1.41L53.92,24.22a3,3,0,0,0,0-4.24L51.8,17.86l1.41-1.42,1.42,1.42a1,1,0,0,0,1.41,0L61.7,12.2a1,1,0,0,0,0-1.41L53.21,2.3a1,1,0,0,0-1.41,0L46.14,7.96a1,1,0,0,0,0,1.41l1.42,1.42L46.14,12.2l-2.12-2.12a3,3,0,0,0-4.24,0L29.17,20.69l-1.41-1.42,2.83-2.83a1.009,1.009,0,0,0,.29-.7,1.033,1.033,0,0,0-.29-.71L17.86,2.3a1.008,1.008,0,0,0-1.42,0l-9.9,9.9a1.008,1.008,0,0,0,0,1.42L19.27,26.34a1,1,0,0,0,.71.3,1.017,1.017,0,0,0,.71-.3l2.82-2.83,1.42,1.42-4.95,4.95a2.994,2.994,0,0,0,0,4.24l2.12,2.12-2.31,2.31a7,7,0,0,0-5.41,1.28l-.76-.76a1.008,1.008,0,0,0-1.42,0l-2.12,2.12a.99.99,0,0,0-.29.71,1.007,1.007,0,0,0,.29.71L21.39,53.92a1.007,1.007,0,0,0,.71.29.99.99,0,0,0,.71-.29l2.12-2.12a1.008,1.008,0,0,0,0-1.42l-.76-.76a7,7,0,0,0,1.28-5.41l2.31-2.31,2.12,2.12a2.994,2.994,0,0,0,4.24,0l4.95-4.95,1.42,1.42-2.83,2.82a1.017,1.017,0,0,0-.3.71,1,1,0,0,0,.3.71L50.38,57.46a1.042,1.042,0,0,0,.71.29,1.024,1.024,0,0,0,.71-.29l9.9-9.9a1.008,1.008,0,0,0,0-1.42Zm6.36,9.2L51.8,46.14l-2.83-2.83,3.54-3.53Zm-7.07-7.07,2.83,2.82L47.56,41.9l-2.83-2.83ZM52.51,4.42l7.07,7.07-4.25,4.25L48.26,8.67ZM48.97,12.2l2.83,2.83-1.42,1.41-2.82-2.82Zm-24.75-.71-3.53,3.54L17.86,12.2l3.53-3.53ZM17.15,4.42l2.83,2.83-3.54,3.54L13.62,7.96ZM8.67,12.91,12.2,9.37l2.83,2.83-3.54,3.54Zm4.24,4.24,3.53-3.53,2.83,2.82-3.53,3.54Zm7.07,7.07-2.83-2.83,3.54-3.53,2.82,2.83Zm2.12-7.78,3.54-3.53,2.82,2.83-3.53,3.53Zm5.66,5.66-1.42,1.41L24.93,22.1l1.41-1.41ZM22.1,51.8l-9.9-9.9.71-.71,9.9,9.9Zm.64-3.61-6.93-6.93a5,5,0,0,1,6.93,6.93Zm1.98-6.08a7.051,7.051,0,0,0-2.83-2.83l1.62-1.62,2.83,2.83Zm7.99.5a1.047,1.047,0,0,1-1.42,0l-9.9-9.9a1.014,1.014,0,0,1,0-1.42l19.8-19.8a1.014,1.014,0,0,1,1.42,0l9.9,9.9a1.008,1.008,0,0,1,0,1.42Zm10.6-4.95L41.9,39.07l-1.41-1.41,1.41-1.42Zm-3.53,6.36,3.53-3.53,2.83,2.82-3.53,3.54Zm4.24,4.24,3.54-3.53,2.82,2.83-3.53,3.53Zm7.07,7.07-2.83-2.82,3.54-3.54,2.83,2.83Zm4.95-4.95-2.83-2.82,3.54-3.54,2.83,2.83Z"/><path d="M42.606,17.151a1,1,0,0,0-1.414,0L27.05,31.293a1,1,0,0,0,0,1.414l4.243,4.243a1,1,0,0,0,1.414,0L46.849,22.808a1,1,0,0,0,0-1.414ZM32,34.829,29.171,32,41.9,19.272,44.728,22.1Z"/></g><text x="0" y="79" fill="#000000" font-size="5px" font-weight="bold" font-family="'Helvetica Neue', Helvetica, Arial-Unicode, Arial, Sans-serif"></text><text x="0" y="84" fill="#000000" font-size="5px" font-weight="bold" font-family="'Helvetica Neue', Helvetica, Arial-Unicode, Arial, Sans-serif"></text></svg>