<svg xmlns="http://www.w3.org/2000/svg" xmlns:xlink="http://www.w3.org/1999/xlink" version="1.1" x="0px" y="0px" viewBox="0 0 52 65" style="enable-background:new 0 0 52 52;" xml:space="preserve"><path d="M41.18,14.71C34.58,12.52,26,6,26,6s-8.58,6.52-15.18,8.71c-0.08,6.18-0.04,9.36-0.03,15.61c0,0,0,0.01,0,0.02  C14.39,37.56,19.91,42.35,26,46c6.09-3.65,11.61-8.43,15.21-15.66c0-0.01,0-0.02,0-0.02C41.22,24.07,41.26,20.89,41.18,14.71z   M39.34,26.3l-0.01,3.48l-0.05,0.1c-2.71,5.46-6.84,9.72-13.02,13.42L26,43.46l-0.26-0.16c-6.16-3.69-10.3-7.95-13.02-13.42  l-0.05-0.1l-0.01-3.48c-0.01-3.26-0.02-5.84,0.03-9.83l0.01-0.36L13.03,16c5.43-1.8,12.6-7.22,12.67-7.27L26,8.5l0.3,0.23  c0.07,0.05,7.24,5.47,12.67,7.27l0.33,0.11l0.01,0.36C39.36,20.46,39.35,23.04,39.34,26.3z"/><path d="M38.31,16.83C33.37,15.09,27.42,10.8,26,9.75c-1.42,1.05-7.37,5.34-12.31,7.08c-0.05,3.79-0.04,6.18-0.03,9.47l0.01,3.24  c2.59,5.16,6.52,9.22,12.33,12.75c5.83-3.54,9.75-7.6,12.33-12.75l0.01-3.24C38.35,23.01,38.36,20.62,38.31,16.83z M31.97,23.37  l-6.32,6.32l-2.12,2.12l-2.12-2.12l-1.38-1.38c-0.585-0.585-0.585-1.535,0-2.12l0,0c0.585-0.585,1.535-0.585,2.12,0l1.38,1.38  l6.32-6.32c0.585-0.585,1.535-0.585,2.12,0l0,0C32.555,21.835,32.555,22.785,31.97,23.37z"/><text x="0" y="67" fill="#000000" font-size="5px" font-weight="bold" font-family="'Helvetica Neue', Helvetica, Arial-Unicode, Arial, Sans-serif"></text><text x="0" y="72" fill="#000000" font-size="5px" font-weight="bold" font-family="'Helvetica Neue', Helvetica, Arial-Unicode, Arial, Sans-serif"></text></svg>