<svg xmlns="http://www.w3.org/2000/svg" xmlns:xlink="http://www.w3.org/1999/xlink" version="1.1" x="0px" y="0px" viewBox="0 0 512 640" style="enable-background:new 0 0 512 512;" xml:space="preserve"><path d="M358.2,315.8c5.8,6.2,15.8,16.2,21.9,18.4c6.2,2.2,2.9,11.6-3.3,9.4c-4.7-1.7-10-5.7-15.1-10.2c-0.2,5-2.4,9.9-6.6,12.9  c3.9,6,3.6,14.2-0.9,19.9c5,4.7,6.4,12.4,3.9,18.7c15.9,0,33.4,0.4,50.8-4.7v-69.8c-31.9-3.2-36.9-19.1-37.6-50.4  c0-1.2-8.7-4.8-15,1.5c-5.1,5-8,15.6-3.5,35.3c0.3,0.5,6.3,4.4,6.3,13.3C359.2,312,358.8,314,358.2,315.8L358.2,315.8z M318.6,362.1  h22.9c8.5,0,8.5-12.8,0-12.8h-31.2c-8.5,0-8.5,12.8,0,12.8H318.6z M343.1,384.9c8.6-0.1,8.4-12.8,0-12.8l-23.8,0.1  c-7,1-7.1,12.7,1.2,12.7H343.1z M310.4,339.3h31.2c0.9,0,1.7,0.1,2.6,0.2c0.4-0.1,0.9-0.2,1.3-0.2c8.5,0,8.5-12.8,0-12.8h-40.8  c-8.5,0-8.5,12.8,0,12.8H310.4z M313,316.5h29.8c8.5,0,8.5-12.8,0-12.8H313C304.5,303.6,304.5,316.5,313,316.5L313,316.5z   M419.4,293.6h23.7c5.7,0,10.4,4.6,10.4,10.4v80.6c0,2.8-1.2,5.4-3.1,7.3v0c-1.9,1.9-4.5,3-7.3,3h-23.7c-3.7,0-6.9-1.9-8.8-4.8  c-13,3.7-28.5,4.8-39.7,4.8h-50.4c-13.4,0-19.3-13.2-14.9-23.4c-10.5-2.8-14.5-15.3-9.4-24.3c-11.3-6.4-10.5-25,2.1-29.7  c-4.8-10.2,1-23.9,14.7-23.9h29.1c-3.6-20.5,0.7-32.6,7.3-39.2c11.9-11.8,31.7-6.1,32,5.3c0.4,15.4,1.8,25.6,6.4,31.7  c3.9,5.1,10.7,7.8,21.9,9c0.5-1.4,1.4-2.7,2.4-3.8v0C413.9,294.8,416.5,293.6,419.4,293.6L419.4,293.6z M443.1,303.6h-23.7  c-0.1,0-0.2,0-0.3,0.1l0,0l-0.1,2.1l0,78.9l0.3,0.2h23.7c0.1,0,0.2,0,0.3-0.1v0l0.1-0.3V304L443.1,303.6z M370.8,219.6  c63.6,0,115.2,51.6,115.2,115.2c0,63.6-51.6,115.1-115.2,115.1c-48.8,0-91.3-30.5-107.9-74.9c-63.2,30.8-139,18-188.6-31.7  C9.9,279,9.9,174.7,74.3,110.3C138.6,46,242.8,46,307.2,110.2c28.5,28.5,46.7,67.3,48.3,110.4C360.5,220,365.6,219.6,370.8,219.6  L370.8,219.6z M259.8,365.5c-6-21.7-5.5-44.8,1.4-66.2l-7.7-2.5c-9.7,8.7-21.1,15.3-33.6,19.4l-5.2,24.9c-0.5,2.4-2.6,4-4.9,4l0,0  h-38.2c-2.6,0-4.6-1.9-5-4.3l-5.1-24.5c-12.5-4.1-23.9-10.7-33.6-19.4l-24.2,8c-2.4,0.8-5-0.4-6.1-2.6l-18.9-32.7  c-1.2-2.1-0.7-4.7,1-6.2l0,0l19-17c-2.7-12.8-2.7-25.9,0-38.8l-19-16.9c-1.9-1.7-2.2-4.5-0.8-6.6L98,151.2c1.2-2.1,3.7-3,5.9-2.2v0  l24.2,8c9.7-8.7,21.1-15.3,33.6-19.4l5.2-24.9c0.5-2.4,2.6-4,4.9-4v0h38.2c2.5,0,4.6,1.9,5,4.3l5.1,24.6  c12.5,4.1,23.9,10.7,33.6,19.4l24.2-8c2.4-0.8,5,0.4,6.1,2.6l18.9,32.7c1.2,2.1,0.7,4.6-1,6.2v0l-19,16.9c2.7,12.8,2.7,26,0,38.8  l7.3,6.5c15.1-14.8,34.2-25.6,55.5-30.4C343.2,138.9,274.7,72,190.8,72C105.3,72,36,141.4,36,226.8s69.3,154.8,154.8,154.8  C215,381.6,238.5,376.1,259.8,365.5L259.8,365.5z M264.7,289.9c4.6-10.9,10.9-21,18.5-29.9l-9.3-8.3l0,0c-1.3-1.2-2-3-1.5-4.9  c1.6-6.5,2.4-13.3,2.4-20c0-6.6-0.8-13.2-2.3-19.7c-0.6-1.8-0.1-3.9,1.4-5.2l18.1-16.2l-15-26.1l-23.1,7.6l0,0  c-1.7,0.6-3.7,0.2-5-1.1c-4.8-4.6-10.3-8.7-16.1-12.1c-5.7-3.3-11.8-5.9-18.2-7.8c-1.8-0.4-3.3-1.9-3.7-3.8l-4.9-23.8h-30.1l-5,23.8  l0,0c-0.4,1.7-1.6,3.2-3.5,3.8c-6.5,1.9-12.7,4.5-18.5,7.9c-5.8,3.3-11.1,7.3-15.9,11.9c-1.3,1.4-3.3,2-5.2,1.4l-23.2-7.6l-15,26.1  l18.1,16.2l0,0c1.3,1.2,2,3.1,1.5,4.9c-1.6,6.5-2.4,13.2-2.4,20c0,6.7,0.8,13.3,2.3,19.7c0.6,1.8,0.1,3.9-1.4,5.2L89.6,268l15,26.1  l23.2-7.7v0c1.7-0.6,3.6-0.2,5,1.1c4.8,4.6,10.2,8.7,16.1,12.1c5.7,3.3,11.8,5.9,18.2,7.8c1.8,0.5,3.3,1.9,3.7,3.9l5,23.8h30.1  l4.9-23.8l0,0c0.4-1.8,1.7-3.2,3.5-3.8c6.5-1.9,12.7-4.6,18.5-7.9c5.8-3.3,11.1-7.3,15.9-11.9c1.3-1.4,3.3-2,5.2-1.4L264.7,289.9z   M445.2,260.4c-41-41-107.6-41-148.7,0c-41.1,41.1-41,107.7,0,148.7c41.1,41,107.7,41,148.7,0C486.3,368.1,486.3,301.5,445.2,260.4  L445.2,260.4z M190.8,172.9c29.8,0,53.9,24.2,53.9,53.9c0,29.8-24.2,53.9-53.9,53.9c-29.8,0-53.9-24.1-53.9-53.9  C136.9,197.1,161,172.9,190.8,172.9L190.8,172.9z M221.8,195.8c-17.1-17.1-45-17.1-62.1,0c-17.1,17.1-17.1,45,0,62.1  c17.1,17.1,45,17.1,62.1,0C239,240.8,239,213,221.8,195.8L221.8,195.8z"/><text x="0" y="527" fill="#f7f7f7" font-size="5px" font-weight="bold" font-family="'Helvetica Neue', Helvetica, Arial-Unicode, Arial, Sans-serif"></text><text x="0" y="532" fill="#f7f7f7" font-size="5px" font-weight="bold" font-family="'Helvetica Neue', Helvetica, Arial-Unicode, Arial, Sans-serif"></text></svg>