<svg xmlns="http://www.w3.org/2000/svg" xmlns:xlink="http://www.w3.org/1999/xlink" version="1.1" x="0px" y="0px" viewBox="0.7998 -0.04785 192.6875 219.1955625" enable-background="new 0.7998 -0.04785 192.6875 175.35645" xml:space="preserve"><path d="M92.2207,104.28711c15.62598,0,28.33789-12.7124,28.33789-28.33838S107.84668,47.61035,92.2207,47.61035  s-28.33838,12.7124-28.33838,28.33838S76.59473,104.28711,92.2207,104.28711z M92.2207,51.61035  c13.41992,0,24.33789,10.91797,24.33789,24.33838s-10.91797,24.33838-24.33789,24.33838  c-13.42041,0-24.33838-10.91797-24.33838-24.33838S78.80029,51.61035,92.2207,51.61035z"/><path d="M178.84277,161.19336h-62.16895c-1.10352,0-2,0.89551-2,2s0.89648,2,2,2h62.16895c1.10449,0,2-0.89551,2-2  S179.94727,161.19336,178.84277,161.19336z"/><path d="M160.03906,109.74414c0.27246,0.12695,0.55957,0.1875,0.8418,0.1875c0.75391,0,1.47559-0.42773,1.81445-1.15625  c0.4668-1.00098,0.0332-2.19141-0.96875-2.65723l-32.10938-14.95605c-1-0.46777-2.18945-0.03271-2.65625,0.96875  c-0.4668,1.00098-0.0332,2.19092,0.96875,2.65723L160.03906,109.74414z"/><path d="M130.39746,72.59277c0.09082,1.04053,0.96387,1.82471,1.98926,1.82471c0.05859,0,0.11914-0.00244,0.17773-0.00781  l31.34473-2.75586c1.10059-0.09668,1.91309-1.06689,1.81738-2.16748c-0.09766-1.09961-1.06348-1.91016-2.16797-1.81689  l-31.34375,2.75586C131.11426,70.52197,130.30078,71.49219,130.39746,72.59277z"/><path d="M123.60449,53.9541c0.38965,0.55518,1.00879,0.85205,1.63965,0.85205c0.39648,0,0.79688-0.11719,1.14648-0.3623  l24.39258-17.09521c0.9043-0.63379,1.12305-1.88086,0.48926-2.78564c-0.63379-0.9043-1.88184-1.12598-2.78613-0.48975  l-24.39258,17.09521C123.18945,51.80225,122.9707,53.04932,123.60449,53.9541z"/><path d="M108.40234,41.20898c0.27344,0.12744,0.56055,0.1875,0.84375,0.1875c0.75293,0,1.47461-0.42822,1.81445-1.15625  l12.94727-27.79736c0.46582-1.00098,0.03223-2.19092-0.96875-2.65723c-1-0.46777-2.19141-0.03271-2.6582,0.96875l-12.94727,27.79736  C106.96777,39.55273,107.40137,40.74268,108.40234,41.20898z"/><path d="M88.68701,37.78027c0.05908,0,0.11816-0.00244,0.17773-0.00781c1.1001-0.09668,1.91357-1.06689,1.81689-2.16748  L87.70752,1.77734c-0.09668-1.10059-1.07617-1.91699-2.16748-1.81689c-1.1001,0.09668-1.91357,1.06689-1.81689,2.16748  l2.97412,33.82764C86.78857,36.99609,87.66162,37.78027,88.68701,37.78027z"/><path d="M67.44043,44.0752c0.38916,0.55518,1.00928,0.85205,1.63965,0.85205c0.396,0,0.79688-0.11719,1.146-0.3623  c0.9043-0.63379,1.12402-1.88086,0.48975-2.78564l-22.41211-31.979c-0.63379-0.9043-1.88135-1.125-2.78564-0.48975  c-0.9043,0.63379-1.12402,1.88086-0.48975,2.78564L67.44043,44.0752z"/><path d="M14.25537,41.83936l40.56836,18.89648c0.27295,0.12744,0.56006,0.1875,0.84277,0.1875  c0.75342,0,1.4751-0.42773,1.81445-1.15625c0.46631-1.00098,0.03271-2.19092-0.96875-2.65723L15.94385,38.21338  c-1-0.46729-2.19043-0.03369-2.65723,0.96875C12.82031,40.18311,13.25391,41.37305,14.25537,41.83936z"/><path d="M2.79736,85.81006c0.05859,0,0.11816-0.00244,0.17773-0.00781l49.25195-4.32959  c1.1001-0.09668,1.91357-1.06689,1.81689-2.16748c-0.09619-1.09961-1.06738-1.91016-2.16748-1.81689L2.62451,81.81787  c-1.1001,0.09668-1.91357,1.06689-1.81689,2.16748C0.89893,85.02588,1.77197,85.81006,2.79736,85.81006z"/><path d="M16.95264,130.70117c0.396,0,0.79688-0.11719,1.146-0.36328l42.24854-29.60938  c0.9043-0.6333,1.12402-1.88037,0.48975-2.78516c-0.63379-0.9043-1.88086-1.12598-2.78564-0.48975L15.80273,127.0625  c-0.9043,0.63477-1.12402,1.88086-0.48975,2.78613C15.70215,130.4043,16.32227,130.70117,16.95264,130.70117z"/><path d="M76.03857,110.68945c-1-0.46777-2.19043-0.0332-2.65723,0.96875l-21.30322,45.73535  c-0.46631,1.00098-0.03271,2.19043,0.96875,2.65723c0.27295,0.12695,0.56006,0.1875,0.84277,0.1875  c0.75342,0,1.4751-0.42773,1.81445-1.15625l21.30322-45.73633C77.47363,112.3457,77.04004,111.15527,76.03857,110.68945z"/><path d="M95.57666,114.125c-1.1001,0.09766-1.91357,1.06738-1.81689,2.16797l4.06641,46.25195  c0.09131,1.04004,0.96436,1.82422,1.98975,1.82422c0.05859,0,0.11816-0.00195,0.17773-0.00781  c1.1001-0.09668,1.91357-1.06641,1.81689-2.16797l-4.06641-46.25098C97.64746,114.84277,96.6792,114.0332,95.57666,114.125z"/><path d="M180.84277,173.30859c0-1.10547-0.89551-2-2-2h-62.16895c-1.10352,0-2,0.89453-2,2c0,1.10352,0.89648,2,2,2h62.16895  C179.94727,175.30859,180.84277,174.41211,180.84277,173.30859z"/><path d="M182.68359,98.53369l3.27539-1.33105l-38.20117,54.50635l-30.75684-43.88672  c-0.63379-0.9043-1.88086-1.12598-2.78613-0.49023c-0.9043,0.63477-1.12305,1.88086-0.48926,2.78613l32.39551,46.22363  c0.37305,0.5332,0.98438,0.85156,1.63672,0.85156s1.26367-0.31836,1.63867-0.85156l39.83691-56.84277l-0.13379,3.53125  c-0.04102,1.10449,0.82031,2.03223,1.92383,2.07422c0.02539,0.00098,0.05078,0.00098,0.07617,0.00098  c1.07031,0,1.95703-0.8457,1.99805-1.92383l0.38965-10.30957c0-0.00537-0.00098-0.01025-0.00098-0.01563  c0.00391-0.15137-0.00977-0.30225-0.04004-0.4502c-0.00781-0.04053-0.02246-0.07861-0.03223-0.11816  c-0.02832-0.10693-0.06445-0.21094-0.10938-0.3125c-0.02051-0.04492-0.04199-0.0874-0.06543-0.13086  c-0.05176-0.0957-0.1123-0.18555-0.18066-0.27246c-0.02637-0.03418-0.05078-0.07031-0.08008-0.10303  c-0.10059-0.11377-0.21191-0.21973-0.3418-0.31055c-0.13086-0.09131-0.26953-0.16064-0.41113-0.2168  c-0.03809-0.01514-0.07617-0.02441-0.11426-0.03662c-0.10938-0.03613-0.21973-0.06348-0.33203-0.08008  c-0.04395-0.00684-0.08789-0.01172-0.13184-0.01514c-0.11621-0.00928-0.23145-0.00732-0.34668,0.00342  c-0.03711,0.00391-0.07324,0.00342-0.11035,0.00879c-0.15039,0.02295-0.29785,0.06055-0.44043,0.11719  c-0.00391,0.00195-0.00977,0.00195-0.01367,0.00391l-9.55859,3.88428c-1.02344,0.41602-1.51563,1.58252-1.09961,2.60596  C180.49414,98.45752,181.66211,98.94873,182.68359,98.53369z"/><text x="0.7998" y="190.30859999999998" fill="#f7f7f7" font-size="5px" font-weight="bold" font-family="'Helvetica Neue', Helvetica, Arial-Unicode, Arial, Sans-serif"></text><text x="0.7998" y="195.30859999999998" fill="#f7f7f7" font-size="5px" font-weight="bold" font-family="'Helvetica Neue', Helvetica, Arial-Unicode, Arial, Sans-serif"></text></svg>