<svg xmlns="http://www.w3.org/2000/svg" version="1.1" viewBox="-5.0 -10.0 110.0 135.0">
 <path d="m60.73 64.363c4.0039-4.3164 7.9883-8.6797 12.027-12.965 1.082-1.0352 2.5898-1.0742 3.6523-0.085938 0.68359 0.70312 1.5156 1.1328 1.5664 2.4922 0.023438 0.66016-0.20312 1.332-0.68359 1.8516l-14.488 15.609c-0.97266 1.0469-2.6094 1.1055-3.6523 0.13281l-8.4102-7.8516c-1.0391-0.96875-1.0977-2.6094-0.12891-3.6484l0.74219-0.79297c1.0859-1.0312 2.5898-1.0703 3.6523-0.078125l0.019532 0.019531zm-23.066-41.57c1.1953-0.37109 1.7617 1.4414 0.56641 1.8164-3.9102 1.2227-7.2539 3.8164-9.4375 7.2617-0.28125 0.44531-0.87109 0.57422-1.3164 0.29297-0.44531-0.28125-0.57422-0.87109-0.29297-1.3164 2.4219-3.8164 6.1406-6.6953 10.48-8.0547zm-12.16 11.398c0.19141-0.48828 0.73828-0.73047 1.2305-0.54297 0.48828 0.19141 0.73047 0.73828 0.54297 1.2305-0.42188 1.0898-0.72266 2.1836-0.91797 3.3477-0.20703 1.2383-2.082 0.92188-1.875-0.3125 0.20312-1.2539 0.55859-2.5469 1.0195-3.7227zm37.023-6.8164-25.766 11.781c-0.37109 0.13281-0.63281 0.48438-0.63281 0.89844v20.754c0 0.92188 0.039063 1.8359 0.11719 2.7383-4.582-1.4609-8.5547-4.2891-11.441-8.0078-7.3164-9.4219-6.4023-22.84 2.0742-31.188 0.89453-0.87891-0.44141-2.2305-1.332-1.3555-4.8203 4.75-7.582 11.238-7.582 18.117 0 11.469 7.6562 21.43 18.535 24.496 0.98828 6.3555 3.9844 12.367 8.9023 16.41l17.328 14.238c0.71875 0.58984 1.7227 0.58984 2.4414 0l17.328-14.238c6.1602-5.0625 9.2734-13.148 9.2734-21.211v-20.754h-0.003907c0-0.35938-0.20703-0.70313-0.55469-0.86328l-26.621-12.172c-2.3008-3.4453-5.4141-6.3008-9.0664-8.2812-8.4609-4.5898-18.809-3.9922-26.699 1.5273-0.42969 0.30078-0.53516 0.89062-0.23438 1.3203 0.30078 0.42969 0.89062 0.53516 1.3203 0.23437 10.527-7.3594 25.066-4.9258 32.613 5.5547zm-24.238 37.328c0.003907 0.015625 0.003907 0.03125 0.007813 0.046875 0.34766 2.5742 1.0273 5.0312 2.0117 7.293 1.4688 3.3672 3.6055 6.2969 6.2969 8.5117l17.344 14.242 17.344-14.242c5.7148-4.6953 8.5703-12.242 8.5703-19.746v-20.145l-25.914-11.852-25.914 11.852v20.145c0 1.3203 0.085938 2.6211 0.25391 3.8945zm-3.3945 5.2812c-2.6133-0.79297-5.2891-0.90625-7.9453-0.35547-2.0391-6.207-7.4453-10.352-13.953-10.953 2.7305-5.9336 1.8477-12.691-2.5078-17.562 4.3555-4.8711 5.2422-11.625 2.5078-17.559 6.5078-0.59766 11.914-4.7422 13.953-10.953 6.3984 1.332 12.688-1.2695 16.461-6.6094 3.7734 5.3398 10.062 7.9414 16.461 6.6094 2.0391 6.207 7.4453 10.352 13.953 10.953-0.66016 1.4336-1.1406 2.9844-1.375 4.5312-0.1875 1.2383 1.6953 1.5234 1.8828 0.28516 0.27734-1.8359 0.91406-3.6016 1.832-5.2188 0.35156-0.62109-0.085937-1.4102-0.81641-1.418-6.5977-0.054687-12.195-4.1406-13.902-10.508-0.13672-0.50781-0.65625-0.80859-1.1641-0.67578-6.3203 1.6875-12.766-1.1133-16.047-6.7734-0.37109-0.63672-1.2773-0.63281-1.6445-0.011719-3.3398 5.6836-9.668 8.4883-16.051 6.7852-0.50781-0.13672-1.0312 0.16406-1.1641 0.67578-1.1445 4.2734-4.1484 7.7305-8.2578 9.4023-1.7656 0.71484-3.6641 1.0859-5.6016 1.1055-0.78516-0.007813-1.2109 0.80078-0.85938 1.418 3.2578 5.75 2.5117 12.617-2.1484 17.297-0.36719 0.37109-0.36719 0.96875 0 1.3398 4.6641 4.6797 5.4062 11.539 2.1484 17.297-0.35156 0.62109 0.085938 1.4141 0.82031 1.418 6.5977 0.054688 12.195 4.1445 13.902 10.508 0.13672 0.50781 0.65625 0.80859 1.1641 0.67578 2.6172-0.69922 5.1836-0.66016 7.793 0.11719 1.2109 0.35937 1.7461-1.4531 0.55859-1.8203zm8.8516-25.652v16.477c0 5.6289 2.0273 11.668 6.4883 15.332l13.719 11.27 13.719-11.27c4.4609-3.6641 6.4883-9.6992 6.4883-15.332l-0.003906-16.477-20.207-9.2383zm-1.9062 16.477c0 6.1914 2.2695 12.758 7.1875 16.797l14.32 11.766c0.35938 0.29688 0.875 0.28516 1.2188-0.011719l14.309-11.754c4.9141-4.0391 7.1875-10.609 7.1875-16.797v-17.086c0-0.41406-0.26562-0.76562-0.63281-0.89844l-21.082-9.6406c-0.26172-0.11719-0.55078-0.10938-0.78906 0l-21.156 9.6758c-0.34766 0.16016-0.55469 0.50391-0.55469 0.86328h-0.003906zm32.262-8.0664-12.629 13.613c-0.35938 0.38281-0.96094 0.40625-1.3438 0.050781l-6.3984-5.9727c-0.023438-0.019532-0.046875-0.039063-0.070313-0.0625-0.29297-0.24609-0.66797-0.21094-0.95703 0.078125l-0.69531 0.74609c-0.25391 0.27344-0.24609 0.70313 0.03125 0.96094l8.4102 7.8516c0.28516 0.26563 0.70312 0.25 0.96484-0.035156l14.48-15.617c0.25391-0.27344 0.23828-0.70312-0.039062-0.96094l-0.79688-0.73828c-0.25781-0.23828-0.65625-0.21484-0.95703 0.085938z" fill-rule="evenodd"/>
<text x="0.0" y="117.5" font-size="5.0" font-weight="bold" font-family="Arbeit Regular, Helvetica, Arial-Unicode, Arial, Sans-serif" fill="#f7f7f7"></text><text x="0.0" y="122.5" font-size="5.0" font-weight="bold" font-family="Arbeit Regular, Helvetica, Arial-Unicode, Arial, Sans-serif" fill="#f7f7f7"></text></svg>