<svg xmlns="http://www.w3.org/2000/svg" xmlns:xlink="http://www.w3.org/1999/xlink" viewBox="0 0 24 30" version="1.1" x="0px" y="0px"><title>i24_photoedit_blur</title><desc>Created with Sketch.</desc><g stroke="none" stroke-width="1" fill="none" fill-rule="evenodd" transform="translate(-699.000000, -668.000000)"><g transform="translate(699.000000, 668.000000)" fill="#f7f7f7" fill-rule="nonzero"><path d="M18.0104076,7.1507576 C21.3298641,10.5477272 21.3298641,16.0553032 18.0104076,19.4522728 C14.6909512,22.8492424 9.30904884,22.8492424 5.98959236,19.4522728 C2.67013588,16.0553032 2.67013588,10.5477272 5.98959236,7.1507576 L12,1 L18.0104076,7.1507576 Z M12,3.28931296 L7.13394396,8.26899702 C4.42201868,11.0442489 4.42201868,15.5587815 7.13394396,18.3340334 C9.8257103,21.0886555 14.1742897,21.0886555 16.866056,18.3340334 C19.5779813,15.5587815 19.5779813,11.0442489 16.866056,8.26899702 L12,3.28931296 Z M9.87036133,8.73803711 C9.87036133,8.73803711 8.24666379,11.6985281 9.32128908,13.6901855 C10.6364746,16.1276855 9.32226564,16.8776855 8.47702113,16.8776855 C7.63177661,16.8776855 6.62036133,14.6130371 7.12036133,12.6130371 C7.62036133,10.6130371 9.87036133,8.73803711 9.87036133,8.73803711 Z M13.9602204,17.8725931 C13.5078152,17.5558156 13.5262667,16.7488963 14.001433,16.0702886 C14.4765993,15.3916808 15.2285445,15.0983594 15.6809497,15.4151369 C16.1333549,15.7319145 16.1149034,16.5388337 15.6397371,17.2174414 C15.1645708,17.8960492 14.4126256,18.1893706 13.9602204,17.8725931 Z"/></g></g><text x="0" y="39" fill="#000000" font-size="5px" font-weight="bold" font-family="'Helvetica Neue', Helvetica, Arial-Unicode, Arial, Sans-serif"></text><text x="0" y="44" fill="#000000" font-size="5px" font-weight="bold" font-family="'Helvetica Neue', Helvetica, Arial-Unicode, Arial, Sans-serif"></text></svg>